<svg width="48" height="48" viewBox="0 0 48 48" fill="none" xmlns="http://www.w3.org/2000/svg">
<path d="M8 23V15C8 13.3431 9.34315 12 11 12H19C20.6569 12 22 13.3431 22 15V35C22 35.5523 21.5523 36 21 36H16C15.4477 36 15 35.5523 15 35V27C15 26.4477 14.5523 26 14 26H11C9.34315 26 8 24.6569 8 23Z" fill="#0F67FE"/>
<path d="M26 23V15C26 13.3431 27.3431 12 29 12H37C38.6569 12 40 13.3431 40 15V35C40 35.5523 39.5523 36 39 36H34C33.4477 36 33 35.5523 33 35V27C33 26.4477 32.5523 26 32 26H29C27.3431 26 26 24.6569 26 23Z" fill="#0F67FE"/>
</svg>
