<svg width="147" height="57" viewBox="0 0 147 57" fill="none" xmlns="http://www.w3.org/2000/svg">
<path d="M75.8147 43.942C75.8147 50.5375 70.4679 55.8843 63.8723 55.8843H63.2479C56.9972 55.8843 51.93 50.8171 51.93 44.5664C51.93 38.3157 46.8628 33.2485 40.6121 33.2485H35.6332C29.3825 33.2485 24.3153 38.3157 24.3153 44.5664C24.3153 50.8171 19.2481 55.8843 12.9974 55.8843H12.373C5.77742 55.8843 0.430664 50.5375 0.430664 43.942V12.3005C0.430664 5.70491 5.77742 0.358154 12.373 0.358154H14.0228C19.7072 0.358154 24.3153 4.96625 24.3153 10.6506C24.3153 16.335 28.9234 20.9431 34.6078 20.9431H41.6376C47.3219 20.9431 51.93 16.335 51.93 10.6506C51.93 4.96625 56.5381 0.358154 62.2225 0.358154H63.8723C70.4679 0.358154 75.8147 5.70491 75.8147 12.3005V43.942Z" fill="white" fill-opacity="0.85"/>
<path d="M146.145 42.6674C146.145 47.2756 143.658 50.757 138.685 53.1118C133.711 55.4665 126.572 56.6439 117.267 56.6439C112.213 56.6439 107.821 56.4666 104.091 56.1122C101.771 55.9074 99.4195 55.59 97.0371 55.1599C94.4599 54.6946 92.6602 52.3994 92.6602 49.7805C92.6602 46.0519 96.2207 43.3392 99.8808 44.0505C101.416 44.3489 103 44.6221 104.633 44.8702C109.004 45.5285 112.895 45.8577 116.304 45.8577C121.398 45.8577 123.945 45.1234 123.945 43.6549C123.945 42.8953 123.223 42.2243 121.779 41.6419C120.375 41.0343 116.244 39.8696 109.386 38.1478C103.129 36.5274 98.7568 34.6917 96.27 32.6408C93.7833 30.5646 92.5399 27.944 92.5399 24.779C92.5399 20.7785 94.9865 17.6642 99.8798 15.436C104.773 13.2079 111.692 12.0938 120.636 12.0938C125.128 12.0938 129.34 12.4103 133.27 13.0433C134.922 13.2961 136.598 13.5992 138.298 13.9527C141.932 14.7083 143.491 18.911 141.432 22.0001C140.117 23.9732 137.683 24.8578 135.376 24.3119C133.415 23.8479 131.39 23.4339 129.299 23.0699C125.81 22.4369 122.962 22.1204 120.756 22.1204C116.906 22.1204 114.981 22.7155 114.981 23.9055C114.981 24.6398 115.642 25.2728 116.966 25.8045C118.33 26.3109 122.22 27.3616 128.638 28.9568C133.411 30.1974 136.96 31.4128 139.286 32.6028C141.653 33.7928 143.378 35.1981 144.46 36.8185C145.583 38.4137 146.145 40.3633 146.145 42.6674Z" fill="white" fill-opacity="0.85"/>
</svg>
