<svg width="375" height="369" viewBox="0 0 375 369" fill="none" xmlns="http://www.w3.org/2000/svg">
<path d="M394.289 255.159L394.289 290.735C394.289 302.524 384.732 312.08 372.943 312.08L337.367 312.08" stroke="#A6CBFF" stroke-width="11.4882"/>
<path d="M337.371 134.2L337.371 169.775C337.371 181.564 346.928 191.121 358.716 191.121L394.292 191.121" stroke="#A6CBFF" stroke-width="11.4882"/>
<path opacity="0.48" d="M337.371 248.042L337.371 212.467C337.371 200.678 327.814 191.121 316.025 191.121L280.45 191.121" stroke="#A6CBFF" stroke-width="11.4882"/>
<path d="M280.446 134.2L280.446 98.624C280.446 86.8352 290.002 77.2785 301.791 77.2785L337.367 77.2785" stroke="#A6CBFF" stroke-width="11.4882"/>
<path opacity="0.48" d="M166.603 20.3589L166.603 55.9346C166.603 67.7234 157.046 77.2801 145.258 77.2801L109.682 77.2801" stroke="#A6CBFF" stroke-width="11.4882"/>
<path opacity="0.48" d="M280.446 20.3589L280.446 55.9346C280.446 67.7234 270.889 77.2801 259.1 77.2801L223.525 77.2801" stroke="#A6CBFF" stroke-width="11.4882"/>
<path opacity="0.48" d="M394.289 20.3589L394.289 55.9346C394.289 67.7234 384.732 77.2801 372.943 77.2801L337.367 77.2801" stroke="#A6CBFF" stroke-width="11.4882"/>
<path d="M109.682 13.2422L109.682 -22.3335C109.682 -34.1223 100.125 -43.679 88.3362 -43.679L52.7605 -43.679" stroke="#A6CBFF" stroke-width="11.4882"/>
<path d="M223.524 13.2422L223.524 -22.3335C223.524 -34.1223 213.968 -43.679 202.179 -43.679L166.603 -43.679" stroke="#A6CBFF" stroke-width="11.4882"/>
<path d="M337.371 13.2422L337.371 -22.3335C337.371 -34.1223 327.814 -43.679 316.025 -43.679L280.45 -43.679" stroke="#A6CBFF" stroke-width="11.4882"/>
</svg>
