<svg width="375" height="369" viewBox="0 0 375 369" fill="none" xmlns="http://www.w3.org/2000/svg">
<path d="M-20.105 113.841L-20.105 78.2651C-20.105 66.4763 -10.5483 56.9196 1.24046 56.9196L36.8162 56.9196" stroke="#A6CBFF" stroke-width="11.4882"/>
<path d="M36.8127 234.8L36.8127 199.225C36.8127 187.436 27.2561 177.879 15.4673 177.879L-20.1084 177.879" stroke="#A6CBFF" stroke-width="11.4882"/>
<path opacity="0.48" d="M36.8127 120.958L36.8127 156.533C36.8128 168.322 46.3694 177.879 58.1582 177.879L93.7339 177.879" stroke="#A6CBFF" stroke-width="11.4882"/>
<path d="M93.7378 234.8L93.7378 270.376C93.7378 282.165 84.1811 291.721 72.3924 291.721L36.8166 291.721" stroke="#A6CBFF" stroke-width="11.4882"/>
<path d="M207.581 348.641L207.581 313.065C207.581 301.277 217.137 291.72 228.926 291.72L264.502 291.72" stroke="#A6CBFF" stroke-width="11.4882"/>
<path opacity="0.48" d="M93.7378 348.641L93.7378 313.065C93.7378 301.277 103.294 291.72 115.083 291.72L150.659 291.72" stroke="#A6CBFF" stroke-width="11.4882"/>
<path opacity="0.48" d="M-20.105 348.641L-20.105 313.065C-20.105 301.277 -10.5483 291.72 1.24046 291.72L36.8162 291.72" stroke="#A6CBFF" stroke-width="11.4882"/>
<path d="M264.502 355.758L264.502 391.334C264.502 403.122 274.059 412.679 285.847 412.679L321.423 412.679" stroke="#A6CBFF" stroke-width="11.4882"/>
<path d="M150.659 355.758L150.659 391.334C150.659 403.122 160.216 412.679 172.005 412.679L207.58 412.679" stroke="#A6CBFF" stroke-width="11.4882"/>
<path d="M36.8127 355.758L36.8127 391.334C36.8128 403.122 46.3694 412.679 58.1582 412.679L93.7339 412.679" stroke="#A6CBFF" stroke-width="11.4882"/>
</svg>
